<?xml version="1.0" encoding="utf-8"?>
<svg version="1.1" id="Layer_1" xmlns="http://www.w3.org/2000/svg" xmlns:xlink="http://www.w3.org/1999/xlink" x="0px" y="0px"
	 width="19.998px" height="20px" viewBox="0 0 19.998 20" enable-background="new 0 0 19.998 20" xml:space="preserve">
<path fill="currentColor" d="M19.998,18.426l-4.386-4.374c1.156-1.477,1.848-3.332,1.848-5.346c0-4.8-3.917-8.706-8.73-8.706
	C3.917,0,0,3.906,0,8.706c0,4.8,3.917,8.706,8.729,8.706c1.991,0,3.827-0.669,5.297-1.792L18.42,20L19.998,18.426z M8.729,15.186
	c-3.583,0-6.498-2.907-6.498-6.48c0-3.573,2.915-6.479,6.498-6.479c3.583,0,6.498,2.906,6.498,6.479
	C15.228,12.279,12.313,15.186,8.729,15.186z"/>
</svg>
